<svg xmlns="http://www.w3.org/2000/svg" xmlns:xlink="http://www.w3.org/1999/xlink" width="500" zoomAndPan="magnify" viewBox="0 0 375 374.999991" height="500" preserveAspectRatio="xMidYMid meet" version="1.0"><path fill="#ffffff" d="M 40.816406 38 L 200.984375 313.246094 C 201.003906 313.277344 201.003906 313.308594 200.984375 313.339844 L 187.390625 336.773438 C 187.375 336.804688 187.347656 336.816406 187.3125 336.816406 C 187.277344 336.816406 187.253906 336.804688 187.234375 336.773438 L 13.574219 38.25 C 13.558594 38.21875 13.558594 38.1875 13.574219 38.160156 C 13.59375 38.132812 13.617188 38.117188 13.652344 38.117188 L 40.738281 37.953125 C 40.773438 37.953125 40.800781 37.96875 40.816406 38 Z M 40.816406 38 " fill-opacity="1" fill-rule="nonzero"/><path fill="#ffffff" d="M 218.328125 236.484375 C 218.378906 236.488281 218.417969 236.472656 218.445312 236.425781 L 309.230469 80.90625 C 309.269531 80.84375 309.320312 80.8125 309.394531 80.8125 L 336.328125 80.828125 C 336.375 80.828125 336.414062 80.847656 336.441406 80.894531 C 336.464844 80.9375 336.464844 80.980469 336.4375 81.027344 L 218.535156 283.488281 C 218.4375 283.65625 218.339844 283.65625 218.246094 283.488281 L 75.414062 38.183594 C 75.386719 38.140625 75.386719 38.097656 75.414062 38.050781 C 75.4375 38.007812 75.476562 37.988281 75.527344 37.988281 L 102.398438 37.988281 C 102.589844 37.988281 102.734375 38.070312 102.832031 38.238281 C 141.273438 104.289062 179.710938 170.335938 218.15625 236.371094 C 218.195312 236.441406 218.253906 236.480469 218.328125 236.484375 Z M 218.328125 236.484375 " fill-opacity="1" fill-rule="nonzero"/><path fill="#ffffff" d="M 265.03125 50.363281 C 269.570312 42.601562 277.65625 38.011719 286.648438 38.007812 C 311.316406 37.992188 336.164062 37.984375 361.1875 37.984375 C 361.398438 37.984375 361.449219 38.074219 361.34375 38.253906 L 347.695312 61.703125 C 347.640625 61.796875 347.558594 61.84375 347.453125 61.84375 C 329.628906 61.835938 311.792969 61.835938 293.945312 61.839844 C 292.140625 61.839844 290.742188 61.96875 289.746094 62.230469 C 287.375 62.84375 285.335938 64.011719 283.636719 65.734375 C 282.871094 66.507812 281.953125 67.820312 280.878906 69.664062 C 260.394531 104.875 239.894531 140.121094 219.378906 175.402344 C 219.355469 175.441406 219.324219 175.460938 219.28125 175.460938 C 219.238281 175.460938 219.203125 175.441406 219.183594 175.402344 L 205.605469 152.105469 C 205.582031 152.0625 205.582031 152.023438 205.605469 151.980469 C 225.402344 118.097656 245.210938 84.226562 265.03125 50.363281 Z M 265.03125 50.363281 " fill-opacity="1" fill-rule="nonzero"/></svg>